<?xml version="1.0" encoding="iso-8859-1"?>
<!-- Uploaded to: SVG Repo, www.svgrepo.com, Generator: SVG Repo Mixer Tools -->
<svg height="800px" width="800px" version="1.1" id="Layer_1" xmlns="http://www.w3.org/2000/svg" xmlns:xlink="http://www.w3.org/1999/xlink" 
	 viewBox="0 0 512 512" xml:space="preserve">
<path style="fill:#2B9FD9;" d="M439.638,22.299v322.757c0,9.222,7.478,16.694,16.694,16.694s16.694-7.472,16.694-16.694V22.299
	L439.638,22.299L439.638,22.299z"/>
<path style="fill:#3AACE6;" d="M172.528,89.076v356.146c0,9.222,7.478,16.694,16.694,16.694c9.216,0,16.694-7.472,16.694-16.694
	V89.076C205.917,89.076,172.528,89.076,172.528,89.076z"/>
<path style="fill:#45C7E6;" d="M389.555,278.279c-27.379,0-51.641,10.573-66.777,26.822c-10.573,11.13-16.694,24.93-16.694,39.955
	c0,15.025,6.121,28.826,16.694,39.955c15.136,16.249,39.399,26.822,66.777,26.822c46.076,0,83.472-29.939,83.472-66.777
	S435.631,278.279,389.555,278.279z"/>
<path style="fill:#61DAF2;" d="M466.57,3.601c-4.006-3.228-9.235-4.341-14.245-3.116L322.777,32.872l-137.561,34.39
	c-7.457,1.892-12.688,8.57-12.688,16.249v121.535l150.249-37.507l150.249-37.618V16.734C473.026,11.615,470.689,6.718,466.57,3.601z
	"/>
<path style="fill:#45C7E6;" d="M473.026,16.734v113.188L322.777,167.54V32.872L452.325,0.485c5.009-1.224,10.239-0.111,14.245,3.116
	C470.689,6.718,473.026,11.615,473.026,16.734z"/>
<path style="fill:#61DAF2;" d="M122.445,512c-46.029,0-83.472-29.954-83.472-66.777s37.443-66.777,83.472-66.777
	s83.472,29.954,83.472,66.777S168.474,512,122.445,512z"/>
</svg>